# xmcd CD database file
#
# Track frame offsets:
#	150
#	22642
#	40606
#	71649
#	90416
#	121976
#	139819
#	160646
#	182045
#	203040
#	225303
#	243308
#	256659
#	285850
#
# Disc length: 4326 seconds
#
# Revision: 2
# Processed by: cddbd v1.5.2PL0 Copyright (c) Steve Scherf et al.
# Submitted via: CDex 1.77
#
DISCID=a010e40e
DTITLE=Jazz from norway - Jazzcd.no 4 CD3
DYEAR=2010
DGENRE=Jazz
TTITLE0=Susanna and The Magical Orchestra - Palpatine's Dream
TTITLE1=Arve Henriksen - Fjorden
TTITLE2=Helge Sunde Ensemble Denada - Finding nymo
TTITLE3=Albatrosh - Matrosh
TTITLE4=Ipa - Nr.2
TTITLE5=Maryland - Balade 2
TTITLE6=Gunhild Seim and Time Jungle - Gigue
TTITLE7=Bull Of The Year - Vrang
TTITLE8=Hakon Kornstad - Oslo
TTITLE9=Sidsel Endresen - I
TTITLE10=Terje Isungset - Etter
TTITLE11=Moe - Lies
TTITLE12=Stian Westerhus - Music for leaving
TTITLE13=Circulasione Totale Orchestra - Yellow bass - Silver cornet version VII
EXTD=YEAR: 2010
EXTT0=
EXTT1=
EXTT2=
EXTT3=
EXTT4=
EXTT5=
EXTT6=
EXTT7=
EXTT8=
EXTT9=
EXTT10=
EXTT11=
EXTT12=
EXTT13=
PLAYORDER=
